<mxfile host="app.diagrams.net" modified="2023-12-07T18:14:15.484Z" agent="Mozilla/5.0 (Windows NT 10.0; Win64; x64) AppleWebKit/537.36 (KHTML, like Gecko) Chrome/119.0.0.0 Safari/537.36" etag="otNtNo_5gd2mZWccAdMe" version="22.1.7" type="device">
  <diagram name="Page-1" id="Z2sajF2uh_801y2SiuPf">
    <mxGraphModel dx="1050" dy="557" grid="1" gridSize="10" guides="1" tooltips="1" connect="1" arrows="1" fold="1" page="1" pageScale="1" pageWidth="850" pageHeight="1100" math="0" shadow="0">
      <root>
        <mxCell id="0" />
        <mxCell id="1" parent="0" />
        <mxCell id="Wi_Pu7H_IG8qOWSYTrbf-1" value="" style="rounded=0;whiteSpace=wrap;html=1;fillColor=#f8cecc;strokeColor=#b85450;" parent="1" vertex="1">
          <mxGeometry x="690" y="230" width="120" height="60" as="geometry" />
        </mxCell>
        <mxCell id="Wi_Pu7H_IG8qOWSYTrbf-2" value="" style="rounded=0;whiteSpace=wrap;html=1;fillColor=#f8cecc;strokeColor=#b85450;" parent="1" vertex="1">
          <mxGeometry x="490" y="230" width="120" height="60" as="geometry" />
        </mxCell>
        <mxCell id="Wi_Pu7H_IG8qOWSYTrbf-3" value="" style="rounded=0;whiteSpace=wrap;html=1;fillColor=#f8cecc;strokeColor=#b85450;" parent="1" vertex="1">
          <mxGeometry x="280" y="230" width="120" height="60" as="geometry" />
        </mxCell>
        <mxCell id="Wi_Pu7H_IG8qOWSYTrbf-4" value="" style="rounded=0;whiteSpace=wrap;html=1;fillColor=#f8cecc;strokeColor=#b85450;" parent="1" vertex="1">
          <mxGeometry x="90" y="230" width="120" height="60" as="geometry" />
        </mxCell>
        <mxCell id="Wi_Pu7H_IG8qOWSYTrbf-5" value="" style="rounded=1;whiteSpace=wrap;html=1;fillColor=#fff2cc;strokeColor=#d6b656;" parent="1" vertex="1">
          <mxGeometry x="300" y="470" width="120" height="60" as="geometry" />
        </mxCell>
        <mxCell id="Wi_Pu7H_IG8qOWSYTrbf-6" value="" style="rounded=1;whiteSpace=wrap;html=1;fillColor=#fff2cc;strokeColor=#d6b656;" parent="1" vertex="1">
          <mxGeometry x="90" y="470" width="120" height="60" as="geometry" />
        </mxCell>
        <mxCell id="Wi_Pu7H_IG8qOWSYTrbf-7" value="" style="rounded=1;whiteSpace=wrap;html=1;fillColor=#fff2cc;strokeColor=#d6b656;" parent="1" vertex="1">
          <mxGeometry x="490" y="470" width="120" height="60" as="geometry" />
        </mxCell>
        <mxCell id="Wi_Pu7H_IG8qOWSYTrbf-8" value="" style="rounded=1;whiteSpace=wrap;html=1;fillColor=#fff2cc;strokeColor=#d6b656;" parent="1" vertex="1">
          <mxGeometry x="690" y="470" width="120" height="60" as="geometry" />
        </mxCell>
        <mxCell id="Wi_Pu7H_IG8qOWSYTrbf-10" value="&lt;b&gt;Buildings&lt;/b&gt;" style="text;html=1;strokeColor=none;fillColor=none;align=center;verticalAlign=middle;whiteSpace=wrap;rounded=0;" parent="1" vertex="1">
          <mxGeometry x="130" y="310" width="60" height="30" as="geometry" />
        </mxCell>
        <mxCell id="Wi_Pu7H_IG8qOWSYTrbf-11" value="" style="ellipse;whiteSpace=wrap;html=1;fillColor=#fa6800;fontColor=#000000;strokeColor=#C73500;" parent="1" vertex="1">
          <mxGeometry x="310" y="600" width="120" height="80" as="geometry" />
        </mxCell>
        <mxCell id="Wi_Pu7H_IG8qOWSYTrbf-12" value="&lt;b&gt;Owen Jones&#39; Lair&lt;/b&gt;" style="text;html=1;strokeColor=none;fillColor=none;align=center;verticalAlign=middle;whiteSpace=wrap;rounded=0;" parent="1" vertex="1">
          <mxGeometry x="460" y="610" width="60" height="30" as="geometry" />
        </mxCell>
        <mxCell id="Wi_Pu7H_IG8qOWSYTrbf-13" value="Actor" style="shape=umlActor;verticalLabelPosition=bottom;verticalAlign=top;html=1;outlineConnect=0;" parent="1" vertex="1">
          <mxGeometry x="670" y="320" width="30" height="60" as="geometry" />
        </mxCell>
        <mxCell id="Wi_Pu7H_IG8qOWSYTrbf-14" value="Actor" style="shape=umlActor;verticalLabelPosition=bottom;verticalAlign=top;html=1;outlineConnect=0;" parent="1" vertex="1">
          <mxGeometry x="600" y="340" width="30" height="60" as="geometry" />
        </mxCell>
        <mxCell id="Wi_Pu7H_IG8qOWSYTrbf-15" value="Actor" style="shape=umlActor;verticalLabelPosition=bottom;verticalAlign=top;html=1;outlineConnect=0;" parent="1" vertex="1">
          <mxGeometry x="790" y="340" width="30" height="60" as="geometry" />
        </mxCell>
        <mxCell id="Wi_Pu7H_IG8qOWSYTrbf-16" value="Actor" style="shape=umlActor;verticalLabelPosition=bottom;verticalAlign=top;html=1;outlineConnect=0;" parent="1" vertex="1">
          <mxGeometry x="395" y="340" width="30" height="60" as="geometry" />
        </mxCell>
        <mxCell id="Wi_Pu7H_IG8qOWSYTrbf-17" value="Actor" style="shape=umlActor;verticalLabelPosition=bottom;verticalAlign=top;html=1;outlineConnect=0;" parent="1" vertex="1">
          <mxGeometry x="280" y="340" width="30" height="60" as="geometry" />
        </mxCell>
        <mxCell id="Wi_Pu7H_IG8qOWSYTrbf-18" value="&lt;b&gt;Enemies&lt;/b&gt;" style="text;html=1;strokeColor=none;fillColor=none;align=center;verticalAlign=middle;whiteSpace=wrap;rounded=0;" parent="1" vertex="1">
          <mxGeometry x="330" y="430" width="60" height="30" as="geometry" />
        </mxCell>
        <mxCell id="Wi_Pu7H_IG8qOWSYTrbf-19" value="&lt;b&gt;Enemies&lt;/b&gt;" style="text;html=1;strokeColor=none;fillColor=none;align=center;verticalAlign=middle;whiteSpace=wrap;rounded=0;" parent="1" vertex="1">
          <mxGeometry x="520" y="400" width="60" height="30" as="geometry" />
        </mxCell>
        <mxCell id="Wi_Pu7H_IG8qOWSYTrbf-22" value="&lt;b&gt;Sir Rhys&#39; work building&lt;/b&gt;" style="text;html=1;strokeColor=none;fillColor=none;align=center;verticalAlign=middle;whiteSpace=wrap;rounded=0;" parent="1" vertex="1">
          <mxGeometry x="700" y="410" width="60" height="30" as="geometry" />
        </mxCell>
        <mxCell id="Wi_Pu7H_IG8qOWSYTrbf-23" style="edgeStyle=orthogonalEdgeStyle;rounded=0;orthogonalLoop=1;jettySize=auto;html=1;exitX=0.5;exitY=1;exitDx=0;exitDy=0;" parent="1" source="Wi_Pu7H_IG8qOWSYTrbf-19" target="Wi_Pu7H_IG8qOWSYTrbf-19" edge="1">
          <mxGeometry relative="1" as="geometry" />
        </mxCell>
        <mxCell id="Wi_Pu7H_IG8qOWSYTrbf-24" value="" style="rounded=1;whiteSpace=wrap;html=1;fillColor=#d5e8d4;strokeColor=#82b366;gradientColor=#97d077;" parent="1" vertex="1">
          <mxGeometry x="320" y="900" width="120" height="60" as="geometry" />
        </mxCell>
        <mxCell id="Wi_Pu7H_IG8qOWSYTrbf-25" value="" style="rounded=1;whiteSpace=wrap;html=1;fillColor=#f0a30a;fontColor=#000000;strokeColor=#BD7000;" parent="1" vertex="1">
          <mxGeometry x="260" y="840" width="120" height="60" as="geometry" />
        </mxCell>
        <mxCell id="Wi_Pu7H_IG8qOWSYTrbf-26" value="" style="rounded=1;whiteSpace=wrap;html=1;fillColor=#f0a30a;fontColor=#000000;strokeColor=#BD7000;" parent="1" vertex="1">
          <mxGeometry x="140" y="840" width="120" height="60" as="geometry" />
        </mxCell>
        <mxCell id="Wi_Pu7H_IG8qOWSYTrbf-27" value="" style="rounded=1;whiteSpace=wrap;html=1;fillColor=#f0a30a;fontColor=#000000;strokeColor=#BD7000;" parent="1" vertex="1">
          <mxGeometry x="380" y="840" width="120" height="60" as="geometry" />
        </mxCell>
        <mxCell id="Wi_Pu7H_IG8qOWSYTrbf-28" value="" style="rounded=1;whiteSpace=wrap;html=1;fillColor=#d5e8d4;strokeColor=#82b366;gradientColor=#97d077;" parent="1" vertex="1">
          <mxGeometry x="200" y="900" width="120" height="60" as="geometry" />
        </mxCell>
        <mxCell id="Wi_Pu7H_IG8qOWSYTrbf-29" value="" style="triangle;whiteSpace=wrap;html=1;rotation=-90;fillColor=#76608a;strokeColor=#432D57;fontColor=#ffffff;" parent="1" vertex="1">
          <mxGeometry x="290" y="770" width="60" height="80" as="geometry" />
        </mxCell>
        <mxCell id="Wi_Pu7H_IG8qOWSYTrbf-30" value="Tech Knight HQ" style="text;html=1;strokeColor=none;fillColor=none;align=center;verticalAlign=middle;whiteSpace=wrap;rounded=0;" parent="1" vertex="1">
          <mxGeometry x="480" y="915" width="60" height="30" as="geometry" />
        </mxCell>
        <mxCell id="Wi_Pu7H_IG8qOWSYTrbf-32" value="Actor" style="shape=umlActor;verticalLabelPosition=bottom;verticalAlign=top;html=1;outlineConnect=0;" parent="1" vertex="1">
          <mxGeometry x="330" y="1000" width="30" height="60" as="geometry" />
        </mxCell>
        <mxCell id="Wi_Pu7H_IG8qOWSYTrbf-33" value="Actor" style="shape=umlActor;verticalLabelPosition=bottom;verticalAlign=top;html=1;outlineConnect=0;" parent="1" vertex="1">
          <mxGeometry x="245" y="1000" width="30" height="60" as="geometry" />
        </mxCell>
        <mxCell id="Wi_Pu7H_IG8qOWSYTrbf-34" value="Actor" style="shape=umlActor;verticalLabelPosition=bottom;verticalAlign=top;html=1;outlineConnect=0;" parent="1" vertex="1">
          <mxGeometry x="150" y="1000" width="30" height="60" as="geometry" />
        </mxCell>
        <mxCell id="Wi_Pu7H_IG8qOWSYTrbf-37" value="Enemies" style="text;html=1;strokeColor=none;fillColor=none;align=center;verticalAlign=middle;whiteSpace=wrap;rounded=0;" parent="1" vertex="1">
          <mxGeometry x="390" y="1070" width="60" height="30" as="geometry" />
        </mxCell>
      </root>
    </mxGraphModel>
  </diagram>
</mxfile>
